# This file uses centimeters as units for non-parametric coordinates.

mtllib SM_CuDen.mtl
g default
v 0.381748 0.463868 -0.727151
v -0.381748 0.463868 -0.727151
v -0.763496 0.463868 -0.000000
v -0.381748 0.463868 0.727151
v 0.381748 0.463868 0.727151
v 0.763496 0.463868 -0.000000
v 0.544194 0.980069 -0.963993
v -0.544194 0.980069 -0.963993
v -1.088387 0.980069 -0.000000
v -0.544194 0.980069 0.963993
v 0.544194 0.980069 0.963993
v 1.088387 0.980069 -0.000000
v 0.483541 1.568389 -0.837517
v -0.483541 1.568389 -0.837518
v -0.967082 1.568389 -0.000000
v -0.483541 1.568389 0.837517
v 0.483541 1.568389 0.837517
v 0.967082 1.568389 -0.000000
v 0.250000 1.956246 -0.433013
v -0.250000 1.956246 -0.433013
v -0.500000 1.956246 -0.000000
v -0.250000 1.956246 0.433013
v 0.250000 1.956246 0.433013
v 0.500000 1.956246 -0.000000
v 0.000000 2.090221 -0.000000
v 0.063353 0.003977 -0.109731
v -0.063353 0.003977 -0.109731
v -0.112628 0.003222 -0.000000
v -0.063353 0.003977 0.109731
v 0.063353 0.003977 0.109731
v 0.112628 0.003222 -0.000000
v 0.017733 -0.815052 -0.030714
v -0.017733 -0.815052 -0.030714
v -0.031525 -0.815264 -0.000000
v -0.017733 -0.815052 0.030714
v 0.017733 -0.815052 0.030714
v 0.031525 -0.815264 -0.000000
v -0.316413 3.351941 0.335728
v -0.252009 4.398357 1.285978
v 0.273278 3.400111 0.280760
v 0.209574 4.389287 1.299105
v -0.011705 3.287575 0.321374
v -0.011705 4.388662 1.411147
v -0.509988 3.795375 0.532369
v -0.011705 3.736267 0.600004
v 0.506527 3.767877 0.560842
v -0.441704 4.103678 0.991984
v -0.011705 4.088443 1.022481
v 0.433169 4.157366 0.936392
v -0.029296 2.007342 0.046408
v 0.022751 2.007342 0.046408
v 0.048774 2.015168 0.002020
v 0.022751 2.022995 -0.042369
v -0.029296 2.022995 -0.042369
v -0.055319 2.015168 0.002020
v -0.028458 4.139295 1.080727
v -0.025373 2.546074 0.130051
v 0.018829 2.546074 0.130051
v 0.040929 2.556712 0.093279
v 0.018829 2.567349 0.056507
v -0.025373 2.567349 0.056507
v -0.047474 2.556712 0.093279
v -0.021451 3.241413 0.331001
v 0.014906 3.241413 0.331001
v 0.033085 3.255774 0.302980
v 0.014906 3.270134 0.274960
v -0.021451 3.270134 0.274960
v -0.039629 3.255774 0.302980
v -0.017528 3.753160 0.640730
v 0.010984 3.753160 0.640730
v 0.025240 3.772383 0.625229
v 0.010984 3.791604 0.609729
v -0.017528 3.791604 0.609729
v -0.031784 3.772383 0.625229
v 0.244922 2.797895 0.490316
v 0.768273 3.132442 1.041293
v 0.536963 2.795172 0.201386
v 1.028210 3.093556 0.807946
v 0.362059 2.721264 0.345476
v 0.934366 3.157489 0.963445
v 0.309095 2.964426 0.768233
v 0.565213 2.951510 0.547516
v 0.801585 2.917533 0.313989
v 0.519462 2.982737 0.976856
v 0.745161 3.054963 0.766172
v 0.933832 3.142318 0.554141
v 0.045847 1.993114 0.129569
v 0.084473 1.988975 0.094931
v 0.078179 2.007291 0.046622
v 0.033261 2.029745 0.032951
v -0.005365 2.033884 0.067588
v 0.000928 2.015568 0.115897
v 0.726376 3.047082 0.743446
v 0.164584 2.303019 0.219054
v 0.197388 2.299504 0.189637
v 0.193623 2.318594 0.149949
v 0.157054 2.341198 0.139676
v 0.124250 2.344713 0.169093
v 0.128015 2.325624 0.208782
v 0.348270 2.694892 0.371171
v 0.375252 2.692001 0.346975
v 0.374949 2.712405 0.316885
v 0.347664 2.735698 0.310989
v 0.320682 2.738589 0.335185
v 0.320985 2.718187 0.365276
v 0.540961 2.912027 0.554210
v 0.562121 2.909759 0.535235
v 0.567908 2.931465 0.517674
v 0.552536 2.955435 0.519088
v 0.531376 2.957703 0.538063
v 0.525588 2.935999 0.555624
v -0.138104 2.820218 -0.207322
v -0.829608 3.624983 -0.390400
v -0.253629 2.854761 0.229915
v -0.865871 3.674967 -0.026105
v -0.233868 2.793015 -0.020604
v -0.925284 3.709548 -0.234569
v -0.259523 3.180418 -0.418722
v -0.416990 3.146623 -0.081315
v -0.474618 3.222441 0.288579
v -0.506046 3.364255 -0.466079
v -0.618473 3.306262 -0.148114
v -0.669912 3.458849 0.171465
v -0.140006 2.039265 -0.013700
v -0.156385 2.039265 0.035702
v -0.122159 2.045169 0.074465
v -0.071555 2.051072 0.063826
v -0.055177 2.051072 0.014424
v -0.089402 2.045169 -0.024339
v -0.632606 3.325722 -0.149598
v -0.173430 2.381291 -0.020649
v -0.187340 2.381291 0.021307
v -0.158988 2.390332 0.053991
v -0.116726 2.399372 0.044718
v -0.102816 2.399372 0.002762
v -0.131168 2.390332 -0.029921
v -0.261398 2.830824 -0.045681
v -0.272839 2.830824 -0.011171
v -0.251399 2.843962 0.015088
v -0.218518 2.857099 0.006838
v -0.207077 2.857099 -0.027672
v -0.228517 2.843962 -0.053931
v -0.430769 3.124742 -0.097701
v -0.439742 3.124742 -0.070638
v -0.428741 3.143277 -0.051972
v -0.408769 3.161811 -0.060369
v -0.399797 3.161811 -0.087433
v -0.410796 3.143277 -0.106099
v -0.004865 1.921737 -0.073710
v -0.045696 1.913126 -0.042605
v -0.045984 1.932170 0.005831
v -0.005442 1.959824 0.023163
v 0.035389 1.968436 -0.007942
v 0.035678 1.949392 -0.056378
v -1.214818 3.452187 -1.227646
v -0.224233 2.447708 -0.209496
v -0.258910 2.440395 -0.183080
v -0.261014 2.459887 -0.143464
v -0.228440 2.486693 -0.130264
v -0.193763 2.494006 -0.156681
v -0.191660 2.474513 -0.196297
v -0.506846 2.874531 -0.455750
v -0.535368 2.868516 -0.434022
v -0.540186 2.888880 -0.404291
v -0.516480 2.915259 -0.396288
v -0.487958 2.921274 -0.418016
v -0.483141 2.900911 -0.447748
v -0.784410 3.193641 -0.765092
v -0.806778 3.188924 -0.748053
v -0.816643 3.209830 -0.731360
v -0.804143 3.235448 -0.731711
v -0.781775 3.240166 -0.748750
v -0.771907 3.219264 -0.765440
v -0.295547 2.943227 -0.652494
v -1.155540 3.595552 -1.538078
v -0.785944 2.998795 -0.212046
v -1.509610 3.583096 -1.249882
v -0.504966 2.881785 -0.410688
v -1.395071 3.548727 -1.456727
v -0.381619 3.274912 -1.021518
v -0.774606 3.198416 -0.727566
v -1.161882 3.240399 -0.383020
v -0.756894 3.397639 -1.396468
v -1.100889 3.387801 -1.111009
v -1.411592 3.465023 -0.789672
v -0.559754 3.196499 0.149600
v -1.397456 4.000711 0.953893
v -0.196165 3.218900 0.563062
v -1.078039 3.989530 1.311727
v -0.407774 3.124669 0.368375
v -1.326499 4.054018 1.217931
v -0.959820 3.589149 0.233963
v -0.662050 3.532063 0.615425
v -0.310929 3.557247 0.961142
v -1.204706 3.737166 0.521317
v -0.876685 3.712862 0.812481
v -0.585109 3.799451 1.117890
v -0.081640 1.990253 0.112428
v -0.045741 1.992402 0.150051
v 0.002462 2.008711 0.139125
v 0.014765 2.022872 0.090577
v -0.021134 2.020723 0.052954
v -0.069336 2.004414 0.063879
v -1.048690 3.844606 0.965927
v -0.186063 2.562145 0.184829
v -0.155574 2.563970 0.216781
v -0.115896 2.581592 0.208487
v -0.106704 2.597391 0.168241
v -0.137192 2.595566 0.136288
v -0.176872 2.577943 0.144583
v -0.392776 3.061781 0.358960
v -0.367699 3.063282 0.385241
v -0.337484 3.082926 0.380437
v -0.332347 3.101066 0.349351
v -0.357424 3.099565 0.323070
v -0.387639 3.079924 0.327874
v -0.686619 3.513309 0.618976
v -0.666952 3.514487 0.639587
v -0.649043 3.536631 0.640955
v -0.650804 3.557595 0.621717
v -0.670471 3.556418 0.601106
v -0.688376 3.534277 0.599734
v 0.057402 2.003182 -0.102959
v 0.007502 2.003182 -0.117752
v -0.029372 2.019660 -0.084925
v -0.016346 2.036139 -0.037305
v 0.033554 2.036139 -0.022513
v 0.070428 2.019660 -0.055340
v 0.457913 4.047255 -1.545571
v 0.123663 2.660988 -0.340278
v 0.081284 2.660988 -0.352841
v 0.050451 2.678710 -0.326591
v 0.061996 2.696431 -0.287778
v 0.104375 2.696431 -0.275215
v 0.135208 2.678710 -0.301465
v 0.215092 3.302636 -0.662498
v 0.180234 3.302636 -0.672831
v 0.155809 3.322271 -0.654398
v 0.166242 3.341905 -0.625633
v 0.201100 3.341905 -0.615299
v 0.225525 3.322271 -0.633732
v 0.326470 3.714363 -1.052012
v 0.299133 3.714363 -1.060116
v 0.282231 3.736277 -1.053258
v 0.292665 3.758191 -1.038297
v 0.320002 3.758191 -1.030193
v 0.336904 3.736277 -1.037051
v 0.459698 3.310191 -0.550394
v 0.707520 4.200586 -1.652257
v -0.096104 3.367234 -0.699295
v 0.243690 4.193728 -1.751053
v 0.182944 3.236680 -0.586063
v 0.519563 4.120416 -1.798112
v 0.721001 3.733397 -0.806425
v 0.288618 3.670443 -0.985836
v -0.152391 3.773061 -1.067105
v 0.803959 4.050364 -1.278035
v 0.452997 4.039346 -1.528557
v 0.002333 4.110304 -1.468284
v 0.617076 3.279233 0.108151
v 1.693679 4.124979 -0.299742
v 0.455571 3.229000 -0.490496
v 1.598942 4.033871 -0.764588
v 0.514116 3.164264 -0.157747
v 1.729812 4.043893 -0.581355
v 0.963391 3.728897 0.173115
v 0.861948 3.573671 -0.268293
v 0.708370 3.487144 -0.775429
v 1.379197 3.896455 0.004537
v 1.355573 3.864523 -0.427983
v 1.181217 3.844028 -0.868858
v 0.120205 2.035795 0.016641
v 0.105189 2.034621 -0.033179
v 0.057133 2.049752 -0.046237
v 0.024093 2.066056 -0.009476
v 0.039109 2.067229 0.040343
v 0.087165 2.052099 0.053402
v 1.354468 3.864803 -0.425616
v 0.241668 2.606339 -0.037507
v 0.228916 2.605342 -0.079818
v 0.189642 2.621948 -0.091460
v 0.163119 2.639551 -0.060792
v 0.175872 2.640548 -0.018481
v 0.215147 2.623941 -0.006839
v 0.500927 3.102977 -0.131447
v 0.490438 3.102157 -0.166248
v 0.461167 3.120931 -0.176859
v 0.442385 3.140524 -0.152669
v 0.452875 3.141344 -0.117867
v 0.482146 3.122571 -0.107257
v 0.877107 3.550112 -0.259462
v 0.868881 3.549469 -0.286755
v 0.853357 3.570850 -0.297472
v 0.846065 3.592870 -0.280900
v 0.854291 3.593512 -0.253608
v 0.869810 3.572136 -0.242888
vt 0.000000 0.333333
vt 0.166667 0.333333
vt 0.333333 0.333333
vt 0.500000 0.333333
vt 0.666667 0.333333
vt 0.833333 0.333333
vt 1.000000 0.333333
vt 0.000000 0.500000
vt 0.166667 0.500000
vt 0.333333 0.500000
vt 0.500000 0.500000
vt 0.666667 0.500000
vt 0.833333 0.500000
vt 1.000000 0.500000
vt 0.000000 0.666667
vt 0.166667 0.666667
vt 0.333333 0.666667
vt 0.500000 0.666667
vt 0.666667 0.666667
vt 0.833333 0.666667
vt 1.000000 0.666667
vt 0.000000 0.833333
vt 0.166667 0.833333
vt 0.333333 0.833333
vt 0.500000 0.833333
vt 0.666667 0.833333
vt 0.833333 0.833333
vt 1.000000 0.833333
vt 0.083333 1.000000
vt 0.250000 1.000000
vt 0.416667 1.000000
vt 0.583333 1.000000
vt 0.750000 1.000000
vt 0.916667 1.000000
vt 1.000000 1.000000
vt 0.000000 1.000000
vt 1.000000 1.000000
vt 0.000000 1.000000
vt 1.000000 1.000000
vt 0.000000 1.000000
vt 1.000000 1.000000
vt 0.000000 1.000000
vt 1.000000 1.000000
vt 0.000000 1.000000
vt 1.000000 1.000000
vt 0.000000 1.000000
vt 0.000000 0.000000
vt 1.000000 0.000000
vt 1.000000 1.000000
vt 0.000000 1.000000
vt 0.000000 0.000000
vt 1.000000 0.000000
vt 1.000000 1.000000
vt 0.000000 1.000000
vt 0.000000 0.000000
vt 1.000000 0.000000
vt 1.000000 1.000000
vt 0.000000 1.000000
vt 0.000000 0.000000
vt 1.000000 0.000000
vt 1.000000 1.000000
vt 0.000000 1.000000
vt 0.000000 0.000000
vt 1.000000 0.000000
vt 1.000000 1.000000
vt 0.000000 1.000000
vt 0.000000 0.000000
vt 1.000000 0.000000
vt 1.000000 1.000000
vt 0.000000 1.000000
vt 0.000000 0.500000
vt 0.333333 0.500000
vt 0.333333 1.000000
vt 0.000000 1.000000
vt 0.000000 0.000000
vt 0.333333 0.000000
vt 0.666667 0.000000
vt 0.666667 0.500000
vt 0.666667 1.000000
vt 1.000000 0.000000
vt 1.000000 0.500000
vt 1.000000 1.000000
vt 0.375000 0.594455
vt 0.416667 0.594455
vt 0.500000 0.688440
vt 0.458333 0.594455
vt 0.500000 0.594455
vt 0.541667 0.594455
vt 0.583333 0.594455
vt 0.625000 0.594455
vt 0.375000 0.312500
vt 0.416667 0.312500
vt 0.416667 0.406485
vt 0.375000 0.406485
vt 0.458333 0.312500
vt 0.458333 0.406485
vt 0.500000 0.312500
vt 0.500000 0.406485
vt 0.541667 0.312500
vt 0.541667 0.406485
vt 0.583333 0.312500
vt 0.583333 0.406485
vt 0.625000 0.312500
vt 0.625000 0.406485
vt 0.416667 0.500470
vt 0.375000 0.500470
vt 0.458333 0.500470
vt 0.500000 0.500470
vt 0.541667 0.500470
vt 0.583333 0.500470
vt 0.625000 0.500470
vt 0.000000 0.500000
vt 0.333333 0.500000
vt 0.333333 1.000000
vt 0.000000 1.000000
vt 0.000000 0.000000
vt 0.333333 0.000000
vt 0.666667 0.000000
vt 0.666667 0.500000
vt 0.666667 1.000000
vt 1.000000 0.000000
vt 1.000000 0.500000
vt 1.000000 1.000000
vt 0.375000 0.594455
vt 0.416667 0.594455
vt 0.500000 0.688440
vt 0.458333 0.594455
vt 0.500000 0.594455
vt 0.541667 0.594455
vt 0.583333 0.594455
vt 0.625000 0.594455
vt 0.375000 0.312500
vt 0.416667 0.312500
vt 0.416667 0.406485
vt 0.375000 0.406485
vt 0.458333 0.312500
vt 0.458333 0.406485
vt 0.500000 0.312500
vt 0.500000 0.406485
vt 0.541667 0.312500
vt 0.541667 0.406485
vt 0.583333 0.312500
vt 0.583333 0.406485
vt 0.625000 0.312500
vt 0.625000 0.406485
vt 0.416667 0.500470
vt 0.375000 0.500470
vt 0.458333 0.500470
vt 0.500000 0.500470
vt 0.541667 0.500470
vt 0.583333 0.500470
vt 0.625000 0.500470
vt 0.000000 0.500000
vt 0.333333 0.500000
vt 0.333333 1.000000
vt 0.000000 1.000000
vt 0.000000 0.000000
vt 0.333333 0.000000
vt 0.666667 0.000000
vt 0.666667 0.500000
vt 0.666667 1.000000
vt 1.000000 0.000000
vt 1.000000 0.500000
vt 1.000000 1.000000
vt 0.375000 0.594455
vt 0.416667 0.594455
vt 0.500000 0.688440
vt 0.458333 0.594455
vt 0.500000 0.594455
vt 0.541667 0.594455
vt 0.583333 0.594455
vt 0.625000 0.594455
vt 0.375000 0.312500
vt 0.416667 0.312500
vt 0.416667 0.406485
vt 0.375000 0.406485
vt 0.458333 0.312500
vt 0.458333 0.406485
vt 0.500000 0.312500
vt 0.500000 0.406485
vt 0.541667 0.312500
vt 0.541667 0.406485
vt 0.583333 0.312500
vt 0.583333 0.406485
vt 0.625000 0.312500
vt 0.625000 0.406485
vt 0.416667 0.500470
vt 0.375000 0.500470
vt 0.458333 0.500470
vt 0.500000 0.500470
vt 0.541667 0.500470
vt 0.583333 0.500470
vt 0.625000 0.500470
vt 0.375000 0.594455
vt 0.416667 0.594455
vt 0.500000 0.688440
vt 0.458333 0.594455
vt 0.500000 0.594455
vt 0.541667 0.594455
vt 0.583333 0.594455
vt 0.625000 0.594455
vt 0.375000 0.312500
vt 0.416667 0.312500
vt 0.416667 0.406485
vt 0.375000 0.406485
vt 0.458333 0.312500
vt 0.458333 0.406485
vt 0.500000 0.312500
vt 0.500000 0.406485
vt 0.541667 0.312500
vt 0.541667 0.406485
vt 0.583333 0.312500
vt 0.583333 0.406485
vt 0.625000 0.312500
vt 0.625000 0.406485
vt 0.416667 0.500470
vt 0.375000 0.500470
vt 0.458333 0.500470
vt 0.500000 0.500470
vt 0.541667 0.500470
vt 0.583333 0.500470
vt 0.625000 0.500470
vt 0.000000 0.500000
vt 0.333333 0.500000
vt 0.333333 1.000000
vt 0.000000 1.000000
vt 0.000000 0.000000
vt 0.333333 0.000000
vt 0.666667 0.000000
vt 0.666667 0.500000
vt 0.666667 1.000000
vt 1.000000 0.000000
vt 1.000000 0.500000
vt 1.000000 1.000000
vt 0.000000 0.500000
vt 0.333333 0.500000
vt 0.333333 1.000000
vt 0.000000 1.000000
vt 0.000000 0.000000
vt 0.333333 0.000000
vt 0.666667 0.000000
vt 0.666667 0.500000
vt 0.666667 1.000000
vt 1.000000 0.000000
vt 1.000000 0.500000
vt 1.000000 1.000000
vt 0.375000 0.594455
vt 0.416667 0.594455
vt 0.500000 0.688440
vt 0.458333 0.594455
vt 0.500000 0.594455
vt 0.541667 0.594455
vt 0.583333 0.594455
vt 0.625000 0.594455
vt 0.375000 0.312500
vt 0.416667 0.312500
vt 0.416667 0.406485
vt 0.375000 0.406485
vt 0.458333 0.312500
vt 0.458333 0.406485
vt 0.500000 0.312500
vt 0.500000 0.406485
vt 0.541667 0.312500
vt 0.541667 0.406485
vt 0.583333 0.312500
vt 0.583333 0.406485
vt 0.625000 0.312500
vt 0.625000 0.406485
vt 0.416667 0.500470
vt 0.375000 0.500470
vt 0.458333 0.500470
vt 0.500000 0.500470
vt 0.541667 0.500470
vt 0.583333 0.500470
vt 0.625000 0.500470
vt 0.375000 0.594455
vt 0.416667 0.594455
vt 0.500000 0.688440
vt 0.458333 0.594455
vt 0.500000 0.594455
vt 0.541667 0.594455
vt 0.583333 0.594455
vt 0.625000 0.594455
vt 0.375000 0.312500
vt 0.416667 0.312500
vt 0.416667 0.406485
vt 0.375000 0.406485
vt 0.458333 0.312500
vt 0.458333 0.406485
vt 0.500000 0.312500
vt 0.500000 0.406485
vt 0.541667 0.312500
vt 0.541667 0.406485
vt 0.583333 0.312500
vt 0.583333 0.406485
vt 0.625000 0.312500
vt 0.625000 0.406485
vt 0.416667 0.500470
vt 0.375000 0.500470
vt 0.458333 0.500470
vt 0.500000 0.500470
vt 0.541667 0.500470
vt 0.583333 0.500470
vt 0.625000 0.500470
vt 0.000000 0.500000
vt 0.333333 0.500000
vt 0.333333 1.000000
vt 0.000000 1.000000
vt 0.000000 0.000000
vt 0.333333 0.000000
vt 0.666667 0.000000
vt 0.666667 0.500000
vt 0.666667 1.000000
vt 1.000000 0.000000
vt 1.000000 0.500000
vt 1.000000 1.000000
vt 0.000000 0.500000
vt 0.333333 0.500000
vt 0.333333 1.000000
vt 0.000000 1.000000
vt 0.000000 0.000000
vt 0.333333 0.000000
vt 0.666667 0.000000
vt 0.666667 0.500000
vt 0.666667 1.000000
vt 1.000000 0.000000
vt 1.000000 0.500000
vt 1.000000 1.000000
vt 0.375000 0.594455
vt 0.416667 0.594455
vt 0.500000 0.688440
vt 0.458333 0.594455
vt 0.500000 0.594455
vt 0.541667 0.594455
vt 0.583333 0.594455
vt 0.625000 0.594455
vt 0.375000 0.312500
vt 0.416667 0.312500
vt 0.416667 0.406485
vt 0.375000 0.406485
vt 0.458333 0.312500
vt 0.458333 0.406485
vt 0.500000 0.312500
vt 0.500000 0.406485
vt 0.541667 0.312500
vt 0.541667 0.406485
vt 0.583333 0.312500
vt 0.583333 0.406485
vt 0.625000 0.312500
vt 0.625000 0.406485
vt 0.416667 0.500470
vt 0.375000 0.500470
vt 0.458333 0.500470
vt 0.500000 0.500470
vt 0.541667 0.500470
vt 0.583333 0.500470
vt 0.625000 0.500470
vn 0.406353 -0.609427 -0.680791
vn 0.306388 -0.833533 -0.459727
vn -0.306388 -0.833533 -0.459727
vn -0.406353 -0.609427 -0.680791
vn -0.581453 -0.813580 -0.000000
vn -0.790039 -0.613057 -0.000000
vn -0.306388 -0.833533 0.459727
vn -0.406353 -0.609427 0.680791
vn 0.306388 -0.833533 0.459727
vn 0.406353 -0.609427 0.680791
vn 0.581453 -0.813580 0.000000
vn 0.790039 -0.613057 0.000000
vn -0.510005 -0.105990 -0.853616
vn 0.510005 -0.105990 -0.853616
vn -0.991954 -0.126601 -0.000000
vn -0.510005 -0.105990 0.853616
vn 0.510005 -0.105990 0.853616
vn 0.991954 -0.126601 0.000000
vn -0.458348 0.426862 -0.779555
vn 0.458348 0.426863 -0.779555
vn -0.908659 0.417539 -0.000000
vn -0.458348 0.426863 0.779555
vn 0.458348 0.426862 0.779555
vn 0.908659 0.417539 0.000000
vn -0.296753 0.804830 -0.513991
vn 0.296753 0.804830 -0.513991
vn -0.593505 0.804830 -0.000000
vn -0.296753 0.804830 0.513991
vn 0.296753 0.804830 0.513991
vn 0.593505 0.804830 -0.000000
vn -0.000000 1.000000 0.000000
vn -0.522675 -0.110667 -0.845319
vn 0.522675 -0.110667 -0.845319
vn 0.527025 -0.127266 -0.840267
vn -0.527080 -0.127261 -0.840233
vn -0.995127 -0.098606 -0.000000
vn -0.993117 -0.117127 -0.000000
vn -0.522675 -0.110667 0.845319
vn -0.527026 -0.127266 0.840266
vn 0.522675 -0.110667 0.845319
vn 0.527081 -0.127261 0.840233
vn 0.995127 -0.098606 0.000000
vn 0.993117 -0.117127 0.000000
vn -0.022654 0.546171 -0.837368
vn -0.022219 0.675241 -0.737262
vn -0.171244 0.671695 -0.720764
vn -0.184001 0.590359 -0.785888
vn 0.132314 0.488258 -0.862611
vn 0.131406 0.685355 -0.716254
vn 0.142351 0.770171 -0.621750
vn -0.028371 0.757745 -0.651934
vn -0.187833 0.725149 -0.662479
vn 0.183202 0.715366 -0.674306
vn -0.039634 0.751947 -0.658031
vn -0.259262 0.750100 -0.608385
vn 0.000000 -0.594354 0.804203
vn 0.000000 -0.591484 0.806317
vn 0.000000 -0.751614 0.659603
vn 0.861461 -0.281575 0.422611
vn 0.861859 -0.287250 0.417956
vn 0.863330 -0.338399 0.374364
vn 0.865943 0.322160 -0.382565
vn 0.866973 0.335683 -0.368340
vn 0.863280 0.437906 -0.250970
vn 0.000000 0.623551 -0.781783
vn 0.000000 0.626816 -0.779168
vn 0.000000 0.804534 -0.593907
vn -0.864952 0.318172 -0.388104
vn -0.864240 0.309978 -0.396236
vn -0.866012 0.392473 -0.309820
vn -0.864829 -0.304963 0.398834
vn -0.863847 -0.294239 0.408890
vn -0.866028 -0.386272 0.317474
vn 0.000000 -0.153420 0.988161
vn 0.000000 -0.153420 0.988161
vn 0.000000 -0.218992 0.975727
vn 0.000000 -0.218992 0.975727
vn 0.864990 -0.071003 0.496740
vn 0.864990 -0.071003 0.496740
vn 0.864937 -0.105787 0.490606
vn 0.864967 -0.103926 0.490950
vn 0.865606 0.095447 -0.491545
vn 0.865606 0.095447 -0.491545
vn 0.865479 0.126692 -0.484660
vn 0.865508 0.125039 -0.485038
vn 0.000000 0.178715 -0.983901
vn 0.000000 0.178715 -0.983901
vn 0.000000 0.241153 -0.970487
vn 0.000000 0.241153 -0.970487
vn -0.865606 0.095447 -0.491545
vn -0.865606 0.095447 -0.491545
vn -0.865508 0.125039 -0.485038
vn -0.865479 0.126692 -0.484660
vn -0.864990 -0.071003 0.496739
vn -0.864991 -0.071003 0.496739
vn -0.864967 -0.103926 0.490950
vn -0.864937 -0.105787 0.490605
vn 0.000000 -0.376265 0.926512
vn 0.000000 -0.376265 0.926512
vn 0.864055 -0.187016 0.467369
vn 0.864130 -0.183748 0.468525
vn 0.864946 0.205618 -0.457810
vn 0.865008 0.202404 -0.459124
vn 0.000000 0.398210 -0.917294
vn 0.000000 0.398210 -0.917294
vn -0.865008 0.202404 -0.459124
vn -0.864946 0.205618 -0.457810
vn -0.864130 -0.183748 0.468525
vn -0.864055 -0.187016 0.467369
vn -0.354845 0.832874 -0.424742
vn -0.342994 0.885543 -0.313318
vn -0.418606 0.846398 -0.329211
vn -0.402812 0.846029 -0.349252
vn -0.298812 0.810576 -0.503664
vn -0.247746 0.931880 -0.264992
vn -0.255988 0.957962 -0.129535
vn -0.303140 0.935965 -0.179095
vn -0.355337 0.903498 -0.239641
vn -0.384676 0.896418 -0.220133
vn -0.266509 0.954434 -0.134275
vn -0.129708 0.990878 -0.036559
vn 0.345466 -0.805494 0.481490
vn 0.346894 -0.804031 0.482906
vn 0.251646 -0.887236 0.386636
vn 0.831136 -0.461230 -0.310612
vn 0.829873 -0.462723 -0.311766
vn 0.814347 -0.480494 -0.325521
vn 0.502192 0.364807 -0.784041
vn 0.513206 0.371567 -0.773665
vn 0.617296 0.434567 -0.655818
vn -0.305719 0.843463 -0.441709
vn -0.303445 0.845481 -0.439413
vn -0.145299 0.950236 -0.275573
vn -0.786941 0.499443 0.362326
vn -0.792408 0.495410 0.355891
vn -0.713245 0.545902 0.439628
vn -0.463786 -0.336045 0.819742
vn -0.458588 -0.332011 0.824297
vn -0.514036 -0.375130 0.771391
vn 0.579361 -0.423132 0.696635
vn 0.579361 -0.423132 0.696635
vn 0.560568 -0.470657 0.681356
vn 0.560568 -0.470657 0.681356
vn 0.935917 -0.272716 -0.222904
vn 0.935917 -0.272716 -0.222904
vn 0.926006 -0.299458 -0.229866
vn 0.926741 -0.297555 -0.229375
vn 0.362992 0.169592 -0.916229
vn 0.362992 0.169592 -0.916229
vn 0.371365 0.190784 -0.908674
vn 0.370783 0.189297 -0.909223
vn -0.565197 0.459440 -0.685177
vn -0.565197 0.459440 -0.685177
vn -0.546860 0.502248 -0.669844
vn -0.546860 0.502248 -0.669844
vn -0.921897 0.307271 0.235988
vn -0.921897 0.307271 0.235988
vn -0.913442 0.326904 0.242400
vn -0.912783 0.328383 0.242880
vn -0.347411 -0.135205 0.927914
vn -0.347411 -0.135205 0.927914
vn -0.355804 -0.160128 0.920740
vn -0.356439 -0.162041 0.920160
vn 0.487829 -0.616818 0.617704
vn 0.487830 -0.616818 0.617704
vn 0.889131 -0.374221 -0.263446
vn 0.890729 -0.371444 -0.261977
vn 0.413085 0.261038 -0.872479
vn 0.411345 0.258373 -0.874093
vn -0.469429 0.647051 -0.600801
vn -0.469429 0.647051 -0.600800
vn -0.874705 0.396175 0.279171
vn -0.872973 0.398841 0.280792
vn -0.393074 -0.233882 0.889265
vn -0.394690 -0.236658 0.887814
vn 0.839365 0.500312 0.212497
vn 0.763477 0.625166 0.162082
vn 0.805361 0.590130 -0.056044
vn 0.872408 0.488779 0.000445
vn 0.762624 0.487457 0.425196
vn 0.650783 0.656722 0.381048
vn 0.606489 0.735990 0.300816
vn 0.704495 0.703827 0.091186
vn 0.764421 0.632273 -0.126060
vn 0.696416 0.665493 0.268559
vn 0.766947 0.638834 0.060692
vn 0.799455 0.583582 -0.142489
vn -0.777793 -0.573186 -0.257868
vn -0.777793 -0.573186 -0.257868
vn -0.659706 -0.718994 -0.218713
vn -0.676149 -0.273787 0.684005
vn -0.673198 -0.277792 0.685300
vn -0.631812 -0.330911 0.700936
vn 0.089303 0.325722 0.941239
vn 0.081052 0.333948 0.939101
vn -0.033484 0.442197 0.896293
vn 0.737100 0.630050 0.244379
vn 0.737100 0.630050 0.244379
vn 0.534501 0.826382 0.177205
vn 0.626025 0.333948 -0.704678
vn 0.633919 0.325722 -0.701464
vn 0.508602 0.442199 -0.738772
vn -0.130459 -0.277793 -0.951741
vn -0.133599 -0.273787 -0.952466
vn -0.087926 -0.330915 -0.939555
vn -0.944562 -0.098667 -0.313156
vn -0.944562 -0.098667 -0.313156
vn -0.938225 -0.151588 -0.311055
vn -0.938225 -0.151588 -0.311055
vn -0.747478 -0.040084 0.663076
vn -0.747478 -0.040084 0.663076
vn -0.745226 -0.069354 0.663195
vn -0.745408 -0.067264 0.663206
vn 0.196811 0.079053 0.977249
vn 0.196811 0.079053 0.977249
vn 0.193640 0.102796 0.975672
vn 0.193867 0.101127 0.975802
vn 0.939979 0.139001 0.311637
vn 0.939979 0.139001 0.311637
vn 0.932383 0.187373 0.309118
vn 0.932383 0.187373 0.309118
vn 0.741646 0.079053 -0.666117
vn 0.741646 0.079053 -0.666117
vn 0.738420 0.101127 -0.666715
vn 0.738161 0.102796 -0.666747
vn -0.203305 -0.040084 -0.978295
vn -0.203305 -0.040084 -0.978295
vn -0.201568 -0.067264 -0.977162
vn -0.201428 -0.069354 -0.977045
vn -0.898704 -0.321799 -0.297954
vn -0.898704 -0.321799 -0.297954
vn -0.724797 -0.156530 0.670945
vn -0.725845 -0.153184 0.670584
vn 0.166504 0.187598 0.968031
vn 0.167775 0.184290 0.968447
vn 0.886034 0.358681 0.293754
vn 0.886034 0.358681 0.293754
vn 0.713102 0.184290 -0.676404
vn 0.711834 0.187598 -0.676830
vn -0.181471 -0.153184 -0.971392
vn -0.180415 -0.156529 -0.971056
vn -0.212438 -0.833724 -0.509681
vn -0.214173 -0.832150 -0.511523
vn -0.114275 -0.908672 -0.401567
vn -0.807309 -0.542963 0.231180
vn -0.798763 -0.550813 0.242039
vn -0.743315 -0.594938 0.305829
vn -0.599297 0.300018 0.742181
vn -0.607953 0.304520 0.733254
vn -0.652371 0.327655 0.683414
vn 0.189400 0.853758 0.484999
vn 0.187471 0.855366 0.482913
vn 0.069878 0.934017 0.350328
vn 0.774511 0.569820 -0.274660
vn 0.785696 0.561174 -0.260318
vn 0.699753 0.617382 -0.359424
vn 0.579058 -0.287445 -0.762933
vn 0.573812 -0.283910 -0.768203
vn 0.605837 -0.305602 -0.734554
vn -0.498227 -0.405631 -0.766312
vn -0.498227 -0.405631 -0.766312
vn -0.448629 -0.513910 -0.731183
vn -0.448629 -0.513909 -0.731183
vn -0.930796 -0.343489 0.125035
vn -0.930796 -0.343489 0.125035
vn -0.904585 -0.399065 0.149909
vn -0.907311 -0.393732 0.147517
vn -0.433031 0.077915 0.898005
vn -0.433032 0.077915 0.898005
vn -0.465144 0.131448 0.875421
vn -0.462136 0.126310 0.877768
vn 0.488743 0.428209 0.760110
vn 0.488743 0.428209 0.760110
vn 0.437480 0.535375 0.722486
vn 0.437479 0.535375 0.722485
vn 0.921828 0.363656 -0.134116
vn 0.921828 0.363656 -0.134116
vn 0.897009 0.412955 -0.157618
vn 0.894170 0.418128 -0.160093
vn 0.421348 -0.058321 -0.905022
vn 0.421348 -0.058321 -0.905022
vn 0.450050 -0.107463 -0.886514
vn 0.453048 -0.112739 -0.884329
vn -0.332932 -0.700691 -0.631022
vn -0.331363 -0.702766 -0.629538
vn -0.855421 -0.483788 0.184944
vn -0.855770 -0.483238 0.184765
vn -0.532724 0.232811 0.813636
vn -0.530977 0.230597 0.815407
vn 0.316581 0.721834 0.615412
vn 0.318162 0.719836 0.616935
vn 0.842919 0.499939 -0.198870
vn 0.842573 0.500432 -0.199096
vn 0.517036 -0.214597 -0.828626
vn 0.518773 -0.216991 -0.826916
vn 0.396276 0.802297 0.446412
vn 0.312582 0.886205 0.341954
vn 0.401584 0.878111 0.260097
vn 0.463137 0.823010 0.328875
vn 0.320535 0.765756 0.557562
vn 0.195875 0.896840 0.396624
vn 0.130674 0.937379 0.322871
vn 0.257387 0.930772 0.259644
vn 0.368605 0.909881 0.190387
vn 0.172723 0.894245 0.412908
vn 0.287887 0.917972 0.272851
vn 0.393169 0.911058 0.124059
vn 0.543044 0.699737 -0.464189
vn 0.462932 0.777874 -0.424978
vn 0.378860 0.757111 -0.532211
vn 0.408201 0.704373 -0.580716
vn 0.652194 0.675733 -0.343550
vn 0.521201 0.799663 -0.298142
vn 0.384482 0.878071 -0.284895
vn 0.343431 0.866796 -0.361553
vn 0.302746 0.846056 -0.438787
vn 0.388629 0.862427 -0.324325
vn 0.322399 0.876565 -0.357341
vn 0.251658 0.885983 -0.389490
vn -0.485295 -0.714568 0.503867
vn -0.485262 -0.714610 0.503839
vn -0.374740 -0.833902 0.405188
vn 0.341292 -0.316297 0.885142
vn 0.347923 -0.323052 0.880106
vn 0.395926 -0.372065 0.839530
vn 0.827444 0.410514 0.383164
vn 0.818634 0.419420 0.392333
vn 0.745559 0.483524 0.458635
vn 0.463109 0.742290 -0.484288
vn 0.463149 0.742242 -0.484324
vn 0.322556 0.876308 -0.357831
vn -0.375768 0.348213 -0.858805
vn -0.365584 0.339299 -0.866732
vn -0.449620 0.412703 -0.792160
vn -0.842640 -0.394023 -0.367021
vn -0.848285 -0.387295 -0.361130
vn -0.797625 -0.442746 -0.409598
vn -0.700575 -0.214096 0.680703
vn -0.700575 -0.214096 0.680704
vn -0.672512 -0.333395 0.660739
vn -0.672512 -0.333395 0.660739
vn 0.238047 -0.067751 0.968888
vn 0.238047 -0.067751 0.968888
vn 0.259149 -0.129482 0.957119
vn 0.257145 -0.123498 0.958449
vn 0.945376 0.161302 0.283276
vn 0.945376 0.161302 0.283276
vn 0.927272 0.222670 0.300973
vn 0.929196 0.216794 0.299324
vn 0.695732 0.238680 -0.677487
vn 0.695732 0.238680 -0.677487
vn 0.665394 0.357494 -0.655324
vn 0.665394 0.357493 -0.655324
vn -0.245827 0.089999 -0.965127
vn -0.245827 0.089999 -0.965127
vn -0.265775 0.145266 -0.953028
vn -0.267848 0.151132 -0.951534
vn -0.950771 -0.138911 -0.277016
vn -0.950771 -0.138911 -0.277016
vn -0.936261 -0.194933 -0.292261
vn -0.934497 -0.200931 -0.293842
vn -0.583061 -0.560261 0.588343
vn -0.583061 -0.560261 0.588343
vn 0.299994 -0.243073 0.922453
vn 0.299415 -0.241643 0.923016
vn 0.880957 0.333160 0.336034
vn 0.881638 0.331859 0.335535
vn 0.571651 0.581674 -0.578680
vn 0.571651 0.581674 -0.578680
vn -0.310743 0.260486 -0.914104
vn -0.311347 0.261791 -0.913525
vn -0.892149 -0.312967 -0.325764
vn -0.891477 -0.314391 -0.326231
vn 0.188728 -0.747713 -0.636637
vn 0.188728 -0.747713 -0.636637
vn 0.155235 -0.837676 -0.523642
vn -0.728037 -0.369677 -0.577323
vn -0.730272 -0.374618 -0.571282
vn -0.745353 -0.410508 -0.525293
vn -0.918214 0.392066 0.056285
vn -0.915822 0.398984 0.045627
vn -0.892846 0.449001 -0.034995
vn -0.179912 0.774144 0.606904
vn -0.179912 0.774144 0.606904
vn -0.135433 0.879165 0.456867
vn 0.742996 0.398985 0.537372
vn 0.739192 0.392067 0.547612
vn 0.767671 0.449001 0.457252
vn 0.923635 -0.374619 -0.080990
vn 0.925053 -0.369677 -0.087274
vn 0.911214 -0.410512 -0.034204
vn 0.266164 -0.350732 -0.897855
vn 0.266164 -0.350732 -0.897855
vn 0.260098 -0.403151 -0.877393
vn 0.260098 -0.403151 -0.877393
vn -0.695472 -0.171504 -0.697786
vn -0.695472 -0.171504 -0.697786
vn -0.698421 -0.198935 -0.687484
vn -0.698262 -0.197307 -0.688114
vn -0.961647 0.189319 0.198476
vn -0.961647 0.189319 0.198476
vn -0.958274 0.216026 0.187197
vn -0.958496 0.214458 0.187866
vn -0.264125 0.369318 0.890978
vn -0.264125 0.369318 0.890978
vn -0.257739 0.421497 0.869431
vn -0.257739 0.421498 0.869431
vn 0.698115 0.189319 0.690502
vn 0.698115 0.189319 0.690502
vn 0.701256 0.214458 0.679888
vn 0.701435 0.216026 0.679207
vn 0.963401 -0.171503 -0.206024
vn 0.963401 -0.171503 -0.206024
vn 0.960469 -0.197307 -0.196393
vn 0.960258 -0.198936 -0.195778
vn 0.235188 -0.561481 -0.793364
vn 0.235188 -0.561481 -0.793364
vn -0.710637 -0.279236 -0.645773
vn -0.710272 -0.277094 -0.647096
vn -0.944774 0.295714 0.141262
vn -0.945212 0.293637 0.142658
vn -0.231305 0.581111 0.780261
vn -0.231305 0.581112 0.780261
vn 0.714756 0.293638 0.634745
vn 0.715150 0.295715 0.633335
vn 0.948184 -0.277094 -0.155457
vn 0.947769 -0.279235 -0.154149
vn -0.165358 0.676950 0.717213
vn -0.127589 0.760935 0.636160
vn 0.093403 0.738772 0.667452
vn 0.018792 0.674028 0.738467
vn -0.331596 0.658786 0.675312
vn -0.336492 0.762263 0.552927
vn -0.342199 0.823281 0.452888
vn -0.093962 0.858558 0.504033
vn 0.150258 0.791205 0.592804
vn -0.386831 0.861984 0.327637
vn -0.072240 0.921566 0.381442
vn 0.234744 0.888030 0.395345
vn -0.734031 0.674942 0.075181
vn -0.620895 0.783318 0.030054
vn -0.597363 0.793517 0.116142
vn -0.686953 0.709962 0.155079
vn -0.778118 0.627939 -0.015010
vn -0.599416 0.796253 -0.081745
vn -0.503782 0.855071 -0.122712
vn -0.512483 0.858697 -0.001308
vn -0.511539 0.852771 0.105401
vn -0.571020 0.809242 -0.138073
vn -0.497015 0.867677 0.010605
vn -0.409372 0.898888 0.156254
vn 0.663630 -0.725345 -0.182946
vn 0.663633 -0.725342 -0.182947
vn 0.512352 -0.848185 -0.134455
vn 0.097024 -0.376489 -0.921327
vn 0.088810 -0.383171 -0.919398
vn 0.024216 -0.433901 -0.900635
vn -0.566084 0.360396 -0.741393
vn -0.554082 0.369088 -0.746168
vn -0.453985 0.434923 -0.777650
vn -0.635107 0.752639 0.173705
vn -0.635104 0.752642 0.173704
vn -0.443499 0.889156 0.112737
vn -0.054540 0.408120 0.911298
vn -0.067058 0.399392 0.914325
vn 0.045369 0.473926 0.879395
vn 0.586797 -0.344264 0.732906
vn 0.594629 -0.337606 0.729683
vn 0.523203 -0.394940 0.755170
vn 0.934327 -0.225133 -0.276311
vn 0.934327 -0.225133 -0.276311
vn 0.901189 -0.344115 -0.263522
vn 0.901189 -0.344114 -0.263522
vn 0.226444 -0.128371 -0.965528
vn 0.226444 -0.128371 -0.965528
vn 0.202778 -0.190097 -0.960596
vn 0.205121 -0.184125 -0.961261
vn -0.716241 0.111708 -0.688854
vn -0.716241 0.111708 -0.688854
vn -0.692565 0.172645 -0.700391
vn -0.694981 0.166802 -0.699413
vn -0.928742 0.249666 0.274053
vn -0.928742 0.249666 0.274053
vn -0.892578 0.368126 0.260362
vn -0.892578 0.368126 0.260362
vn -0.217977 0.150650 0.964257
vn -0.217977 0.150650 0.964257
vn -0.195139 0.205865 0.958927
vn -0.192661 0.211714 0.958154
vn 0.723711 -0.089508 0.684274
vn 0.723711 -0.089508 0.684274
vn 0.704307 -0.145112 0.694906
vn 0.702064 -0.151076 0.695904
vn 0.790419 -0.569819 -0.224823
vn 0.790419 -0.569818 -0.224823
vn 0.151549 -0.303051 -0.940847
vn 0.152308 -0.301634 -0.941180
vn -0.636254 0.282680 -0.717825
vn -0.637077 0.281384 -0.717604
vn -0.776038 0.591076 0.219986
vn -0.776038 0.591077 0.219986
vn -0.138318 0.320364 0.937142
vn -0.137527 0.321658 0.936815
vn 0.650722 -0.262680 0.712432
vn 0.649923 -0.264100 0.712636
s 1
g cu_den1 SM_CuDen
usemtl initialShadingGroup
f 1/1/1 26/35/2 27/36/3 2/2/4
f 27/37/3 28/38/5 3/3/6 2/2/4
f 28/39/5 29/40/7 4/4/8 3/3/6
f 29/41/7 30/42/9 5/5/10 4/4/8
f 30/43/9 31/44/11 6/6/12 5/5/10
f 31/45/11 26/46/2 1/7/1 6/6/12
f 1/1/1 2/2/4 8/9/13 7/8/14
f 2/2/4 3/3/6 9/10/15 8/9/13
f 3/3/6 4/4/8 10/11/16 9/10/15
f 4/4/8 5/5/10 11/12/17 10/11/16
f 5/5/10 6/6/12 12/13/18 11/12/17
f 6/6/12 1/7/1 7/14/14 12/13/18
f 7/8/14 8/9/13 14/16/19 13/15/20
f 8/9/13 9/10/15 15/17/21 14/16/19
f 9/10/15 10/11/16 16/18/22 15/17/21
f 10/11/16 11/12/17 17/19/23 16/18/22
f 11/12/17 12/13/18 18/20/24 17/19/23
f 12/13/18 7/14/14 13/21/20 18/20/24
f 13/15/20 14/16/19 20/23/25 19/22/26
f 14/16/19 15/17/21 21/24/27 20/23/25
f 15/17/21 16/18/22 22/25/28 21/24/27
f 16/18/22 17/19/23 23/26/29 22/25/28
f 17/19/23 18/20/24 24/27/30 23/26/29
f 18/20/24 13/21/20 19/28/26 24/27/30
f 19/22/26 20/23/25 25/29/31
f 20/23/25 21/24/27 25/30/31
f 21/24/27 22/25/28 25/31/31
f 22/25/28 23/26/29 25/32/31
f 23/26/29 24/27/30 25/33/31
f 24/27/30 19/28/26 25/34/31
s 2
f 27/47/32 26/48/33 32/49/34 33/50/35
f 28/51/36 27/52/32 33/53/35 34/54/37
f 29/55/38 28/56/36 34/57/37 35/58/39
f 30/59/40 29/60/38 35/61/39 36/62/41
f 31/63/42 30/64/40 36/65/41 37/66/43
f 26/67/33 31/68/42 37/69/43 32/70/34
f 33/50/35 36/62/41 35/58/39 34/54/37
f 33/50/35 32/70/34 37/66/43 36/62/41
s 3
f 42/71/44 45/72/45 46/73/46 40/74/47
f 38/75/48 44/76/49 45/72/45 42/71/44
f 45/72/45 44/76/49 47/77/50 48/78/51
f 46/73/46 45/72/45 48/78/51 49/79/52
f 48/78/51 47/77/50 39/80/53 43/81/54
f 49/79/52 48/78/51 43/81/54 41/82/55
s 4
f 69/83/56 70/84/57 56/85/58
s 5
f 70/84/59 71/86/60 56/85/61
s 6
f 71/86/62 72/87/63 56/85/64
s 7
f 72/87/65 73/88/66 56/85/67
s 8
f 73/88/68 74/89/69 56/85/70
s 9
f 74/89/71 69/90/72 56/85/73
s 4
f 50/91/74 51/92/75 58/93/76 57/94/77
s 5
f 51/92/78 52/95/79 59/96/80 58/93/81
s 6
f 52/95/82 53/97/83 60/98/84 59/96/85
s 7
f 53/97/86 54/99/87 61/100/88 60/98/89
s 8
f 54/99/90 55/101/91 62/102/92 61/100/93
s 9
f 55/101/94 50/103/95 57/104/96 62/102/97
s 4
f 57/94/77 58/93/76 64/105/98 63/106/99
s 5
f 58/93/81 59/96/80 65/107/100 64/105/101
s 6
f 59/96/85 60/98/84 66/108/102 65/107/103
s 7
f 60/98/89 61/100/88 67/109/104 66/108/105
s 8
f 61/100/93 62/102/92 68/110/106 67/109/107
s 9
f 62/102/97 57/104/96 63/111/108 68/110/109
s 4
f 63/106/99 64/105/98 70/84/57 69/83/56
s 5
f 64/105/101 65/107/100 71/86/60 70/84/59
s 6
f 65/107/103 66/108/102 72/87/63 71/86/62
s 7
f 66/108/105 67/109/104 73/88/66 72/87/65
s 8
f 67/109/107 68/110/106 74/89/69 73/88/68
s 9
f 68/110/109 63/111/108 69/90/72 74/89/71
s 16
f 79/112/110 82/113/111 83/114/112 77/115/113
f 75/116/114 81/117/115 82/113/111 79/112/110
f 82/113/111 81/117/115 84/118/116 85/119/117
f 83/114/112 82/113/111 85/119/117 86/120/118
f 85/119/117 84/118/116 76/121/119 80/122/120
f 86/120/118 85/119/117 80/122/120 78/123/121
s 17
f 106/124/122 107/125/123 93/126/124
s 18
f 107/125/125 108/127/126 93/126/127
s 19
f 108/127/128 109/128/129 93/126/130
s 20
f 109/128/131 110/129/132 93/126/133
s 21
f 110/129/134 111/130/135 93/126/136
s 22
f 111/130/137 106/131/138 93/126/139
s 17
f 87/132/140 88/133/141 95/134/142 94/135/143
s 18
f 88/133/144 89/136/145 96/137/146 95/134/147
s 19
f 89/136/148 90/138/149 97/139/150 96/137/151
s 20
f 90/138/152 91/140/153 98/141/154 97/139/155
s 21
f 91/140/156 92/142/157 99/143/158 98/141/159
s 22
f 92/142/160 87/144/161 94/145/162 99/143/163
s 17
f 94/135/143 95/134/142 101/146/164 100/147/165
s 18
f 95/134/147 96/137/146 102/148/166 101/146/167
s 19
f 96/137/151 97/139/150 103/149/168 102/148/169
s 20
f 97/139/155 98/141/154 104/150/170 103/149/171
s 21
f 98/141/159 99/143/158 105/151/172 104/150/173
s 22
f 99/143/163 94/145/162 100/152/174 105/151/175
s 17
f 100/147/165 101/146/164 107/125/123 106/124/122
s 18
f 101/146/167 102/148/166 108/127/126 107/125/125
s 19
f 102/148/169 103/149/168 109/128/129 108/127/128
s 20
f 103/149/171 104/150/170 110/129/132 109/128/131
s 21
f 104/150/173 105/151/172 111/130/135 110/129/134
s 22
f 105/151/175 100/152/174 106/131/138 111/130/137
s 29
f 116/153/176 119/154/177 120/155/178 114/156/179
f 112/157/180 118/158/181 119/154/177 116/153/176
f 119/154/177 118/158/181 121/159/182 122/160/183
f 120/155/178 119/154/177 122/160/183 123/161/184
f 122/160/183 121/159/182 113/162/185 117/163/186
f 123/161/184 122/160/183 117/163/186 115/164/187
s 30
f 143/165/188 144/166/189 130/167/190
s 31
f 144/166/191 145/168/192 130/167/193
s 32
f 145/168/194 146/169/195 130/167/196
s 33
f 146/169/197 147/170/198 130/167/199
s 34
f 147/170/200 148/171/201 130/167/202
s 35
f 148/171/203 143/172/204 130/167/205
s 30
f 124/173/206 125/174/207 132/175/208 131/176/209
s 31
f 125/174/210 126/177/211 133/178/212 132/175/213
s 32
f 126/177/214 127/179/215 134/180/216 133/178/217
s 33
f 127/179/218 128/181/219 135/182/220 134/180/221
s 34
f 128/181/222 129/183/223 136/184/224 135/182/225
s 35
f 129/183/226 124/185/227 131/186/228 136/184/229
s 30
f 131/176/209 132/175/208 138/187/230 137/188/231
s 31
f 132/175/213 133/178/212 139/189/232 138/187/233
s 32
f 133/178/217 134/180/216 140/190/234 139/189/235
s 33
f 134/180/221 135/182/220 141/191/236 140/190/237
s 34
f 135/182/225 136/184/224 142/192/238 141/191/239
s 35
f 136/184/229 131/186/228 137/193/240 142/192/241
s 30
f 137/188/231 138/187/230 144/166/189 143/165/188
s 31
f 138/187/233 139/189/232 145/168/192 144/166/191
s 32
f 139/189/235 140/190/234 146/169/195 145/168/194
s 33
f 140/190/237 141/191/236 147/170/198 146/169/197
s 34
f 141/191/239 142/192/238 148/171/201 147/170/200
s 35
f 142/192/241 137/193/240 143/172/204 148/171/203
s 42
f 168/194/242 169/195/243 155/196/244
s 43
f 169/195/245 170/197/246 155/196/247
s 44
f 170/197/248 171/198/249 155/196/250
s 45
f 171/198/251 172/199/252 155/196/253
s 46
f 172/199/254 173/200/255 155/196/256
s 47
f 173/200/257 168/201/258 155/196/259
s 42
f 149/202/260 150/203/261 157/204/262 156/205/263
s 43
f 150/203/264 151/206/265 158/207/266 157/204/267
s 44
f 151/206/268 152/208/269 159/209/270 158/207/271
s 45
f 152/208/272 153/210/273 160/211/274 159/209/275
s 46
f 153/210/276 154/212/277 161/213/278 160/211/279
s 47
f 154/212/280 149/214/281 156/215/282 161/213/283
s 42
f 156/205/263 157/204/262 163/216/284 162/217/285
s 43
f 157/204/267 158/207/266 164/218/286 163/216/287
s 44
f 158/207/271 159/209/270 165/219/288 164/218/289
s 45
f 159/209/275 160/211/274 166/220/290 165/219/291
s 46
f 160/211/279 161/213/278 167/221/292 166/220/293
s 47
f 161/213/283 156/215/282 162/222/294 167/221/295
s 42
f 162/217/285 163/216/284 169/195/243 168/194/242
s 43
f 163/216/287 164/218/286 170/197/246 169/195/245
s 44
f 164/218/289 165/219/288 171/198/249 170/197/248
s 45
f 165/219/291 166/220/290 172/199/252 171/198/251
s 46
f 166/220/293 167/221/292 173/200/255 172/199/254
s 47
f 167/221/295 162/222/294 168/201/258 173/200/257
s 54
f 178/223/296 181/224/297 182/225/298 176/226/299
f 174/227/300 180/228/301 181/224/297 178/223/296
f 181/224/297 180/228/301 183/229/302 184/230/303
f 182/225/298 181/224/297 184/230/303 185/231/304
f 184/230/303 183/229/302 175/232/305 179/233/306
f 185/231/304 184/230/303 179/233/306 177/234/307
s 55
f 190/235/308 193/236/309 194/237/310 188/238/311
f 186/239/312 192/240/313 193/236/309 190/235/308
f 193/236/309 192/240/313 195/241/314 196/242/315
f 194/237/310 193/236/309 196/242/315 197/243/316
f 196/242/315 195/241/314 187/244/317 191/245/318
f 197/243/316 196/242/315 191/245/318 189/246/319
s 56
f 217/247/320 218/248/321 204/249/322
s 57
f 218/248/323 219/250/324 204/249/325
s 58
f 219/250/326 220/251/327 204/249/328
s 59
f 220/251/329 221/252/330 204/249/331
s 60
f 221/252/332 222/253/333 204/249/334
s 61
f 222/253/335 217/254/336 204/249/337
s 56
f 198/255/338 199/256/339 206/257/340 205/258/341
s 57
f 199/256/342 200/259/343 207/260/344 206/257/345
s 58
f 200/259/346 201/261/347 208/262/348 207/260/349
s 59
f 201/261/350 202/263/351 209/264/352 208/262/353
s 60
f 202/263/354 203/265/355 210/266/356 209/264/357
s 61
f 203/265/358 198/267/359 205/268/360 210/266/361
s 56
f 205/258/341 206/257/340 212/269/362 211/270/363
s 57
f 206/257/345 207/260/344 213/271/364 212/269/365
s 58
f 207/260/349 208/262/348 214/272/366 213/271/367
s 59
f 208/262/353 209/264/352 215/273/368 214/272/369
s 60
f 209/264/357 210/266/356 216/274/370 215/273/371
s 61
f 210/266/361 205/268/360 211/275/372 216/274/373
s 56
f 211/270/363 212/269/362 218/248/321 217/247/320
s 57
f 212/269/365 213/271/364 219/250/324 218/248/323
s 58
f 213/271/367 214/272/366 220/251/327 219/250/326
s 59
f 214/272/369 215/273/368 221/252/330 220/251/329
s 60
f 215/273/371 216/274/370 222/253/333 221/252/332
s 61
f 216/274/373 211/275/372 217/254/336 222/253/335
s 68
f 242/276/374 243/277/375 229/278/376
s 69
f 243/277/377 244/279/378 229/278/379
s 70
f 244/279/380 245/280/381 229/278/382
s 71
f 245/280/383 246/281/384 229/278/385
s 72
f 246/281/386 247/282/387 229/278/388
s 73
f 247/282/389 242/283/390 229/278/391
s 68
f 223/284/392 224/285/393 231/286/394 230/287/395
s 69
f 224/285/396 225/288/397 232/289/398 231/286/399
s 70
f 225/288/400 226/290/401 233/291/402 232/289/403
s 71
f 226/290/404 227/292/405 234/293/406 233/291/407
s 72
f 227/292/408 228/294/409 235/295/410 234/293/411
s 73
f 228/294/412 223/296/413 230/297/414 235/295/415
s 68
f 230/287/395 231/286/394 237/298/416 236/299/417
s 69
f 231/286/399 232/289/398 238/300/418 237/298/419
s 70
f 232/289/403 233/291/402 239/301/420 238/300/421
s 71
f 233/291/407 234/293/406 240/302/422 239/301/423
s 72
f 234/293/411 235/295/410 241/303/424 240/302/425
s 73
f 235/295/415 230/297/414 236/304/426 241/303/427
s 68
f 236/299/417 237/298/416 243/277/375 242/276/374
s 69
f 237/298/419 238/300/418 244/279/378 243/277/377
s 70
f 238/300/421 239/301/420 245/280/381 244/279/380
s 71
f 239/301/423 240/302/422 246/281/384 245/280/383
s 72
f 240/302/425 241/303/424 247/282/387 246/281/386
s 73
f 241/303/427 236/304/426 242/283/390 247/282/389
s 80
f 252/305/428 255/306/429 256/307/430 250/308/431
f 248/309/432 254/310/433 255/306/429 252/305/428
f 255/306/429 254/310/433 257/311/434 258/312/435
f 256/307/430 255/306/429 258/312/435 259/313/436
f 258/312/435 257/311/434 249/314/437 253/315/438
f 259/313/436 258/312/435 253/315/438 251/316/439
s 81
f 264/317/440 267/318/441 268/319/442 262/320/443
f 260/321/444 266/322/445 267/318/441 264/317/440
f 267/318/441 266/322/445 269/323/446 270/324/447
f 268/319/442 267/318/441 270/324/447 271/325/448
f 270/324/447 269/323/446 261/326/449 265/327/450
f 271/325/448 270/324/447 265/327/450 263/328/451
s 82
f 291/329/452 292/330/453 278/331/454
s 83
f 292/330/455 293/332/456 278/331/457
s 84
f 293/332/458 294/333/459 278/331/460
s 85
f 294/333/461 295/334/462 278/331/463
s 86
f 295/334/464 296/335/465 278/331/466
s 87
f 296/335/467 291/336/468 278/331/469
s 82
f 272/337/470 273/338/471 280/339/472 279/340/473
s 83
f 273/338/474 274/341/475 281/342/476 280/339/477
s 84
f 274/341/478 275/343/479 282/344/480 281/342/481
s 85
f 275/343/482 276/345/483 283/346/484 282/344/485
s 86
f 276/345/486 277/347/487 284/348/488 283/346/489
s 87
f 277/347/490 272/349/491 279/350/492 284/348/493
s 82
f 279/340/473 280/339/472 286/351/494 285/352/495
s 83
f 280/339/477 281/342/476 287/353/496 286/351/497
s 84
f 281/342/481 282/344/480 288/354/498 287/353/499
s 85
f 282/344/485 283/346/484 289/355/500 288/354/501
s 86
f 283/346/489 284/348/488 290/356/502 289/355/503
s 87
f 284/348/493 279/350/492 285/357/504 290/356/505
s 82
f 285/352/495 286/351/494 292/330/453 291/329/452
s 83
f 286/351/497 287/353/496 293/332/456 292/330/455
s 84
f 287/353/499 288/354/498 294/333/459 293/332/458
s 85
f 288/354/501 289/355/500 295/334/462 294/333/461
s 86
f 289/355/503 290/356/502 296/335/465 295/334/464
s 87
f 290/356/505 285/357/504 291/336/468 296/335/467
